<?xml version="1.0" encoding="UTF-8" standalone="no" ?>
<!DOCTYPE svg PUBLIC "-//W3C//DTD SVG 1.1//EN" "http://www.w3.org/Graphics/SVG/1.1/DTD/svg11.dtd">
<svg xmlns="http://www.w3.org/2000/svg" xmlns:xlink="http://www.w3.org/1999/xlink" version="1.1" width="1280" height="1024" viewBox="0 0 1280 1024" xml:space="preserve">
<desc>Created with Fabric.js 5.3.0</desc>
<defs>
</defs>
<g transform="matrix(1 0 0 1 640 512)" id="background-logo"  >
<rect style="stroke: none; stroke-width: 0; stroke-dasharray: none; stroke-linecap: butt; stroke-dashoffset: 0; stroke-linejoin: miter; stroke-miterlimit: 4; fill: rgb(255,255,255); fill-opacity: 0; fill-rule: nonzero; opacity: 1;"  paint-order="stroke"  x="-640" y="-512" rx="0" ry="0" width="1280" height="1024" />
</g>
<g transform="matrix(1.9211538461538462 0 0 1.9211538461538462 640 398.67481233198123)" id="logo-logo"  >
<g style=""  paint-order="stroke"   >
		<g transform="matrix(0 -1.0030806221353972 1.003080622135397 0 0 0)"  >
<g style=""  paint-order="stroke"   >
		<g transform="matrix(1 0 0 1 0 0)"  >
<path style="stroke: none; stroke-width: 1; stroke-dasharray: none; stroke-linecap: butt; stroke-dashoffset: 0; stroke-linejoin: miter; stroke-miterlimit: 4; fill: rgb(23,135,34); fill-rule: nonzero; opacity: 1;"  paint-order="stroke"  transform=" translate(-99.6350905431677, -100.00380481127695)" d="M 127.86 19.5 C 93.7 7 53.9 18.09 31 46.22 C 8.100000000000001 74.35 4.75 115.22 23.68 146.45999999999998 C 42.61 177.69999999999996 79.43 193.79 115.16 187 C 155.85 179.25 185 142.46 185.45 101.5 C 185.12839348875255 64.86458773443763 162.21218599238836 32.23515528606349 127.85999999999999 19.5 Z M 123.86 172.39 C 94.02129497970246 182.8995662155028 60.79234839522026 173.88198622024095 40.36 149.73 C 19.89 125.41 17.36 89.58999999999999 33.79 62.47999999999999 C 50 35.76 82.19 21.34 112.89 27.54 C 148.07999999999998 34.64 173.25 65.77 173.65 101.49000000000001 C 173.3 132.84 153.73 161.78 123.9 172.39 Z M 98.3 195.86 C 46.42014126230071 195.28686884901435 4.503131150985666 153.3698587376993 3.930000000000007 101.49000000000001 C 3.91 99 0 99 0 101.49 C 0.6053904839655958 155.52684351276318 44.26315648723682 199.1846095160344 98.3 199.79 C 100.84 199.82 100.84 195.88 98.3 195.86 Z M 97.94 7.08 C 150.0407591885915 7.653181812199722 192.13681818780023 49.74924081140845 192.70999999999998 101.84999999999994 C 192.70999999999998 106.07 199.30999999999997 106.08 199.26999999999998 101.85 C 198.63776311364927 46.15096926986165 153.63903073013836 1.1522368863507353 97.94000000000003 0.5200000000000102 C 93.72 0.48 93.72 7 97.94 7.08 Z M 191.81 109.31 C 190.15569486274438 110.96636767897049 190.15680947168585 113.65002670160582 191.81248992231752 115.305019638293 C 193.4681703729492 116.9600125749802 196.1518296270508 116.9600125749802 197.80751007768248 115.30501963829302 C 199.46319052831416 113.65002670160582 199.46430513725562 110.9663676789705 197.81 109.31 C 197.01733126629335 108.50875659354612 195.93708239174512 108.05789487684453 194.81 108.05789487684453 C 193.68291760825488 108.05789487684453 192.60266873370665 108.50875659354612 191.81 109.31 Z M 193 119 C 192.0009782553198 119 191.10032662495868 119.6017961796145 190.71801755469713 120.52477192205824 C 190.33570848443554 121.44774766450196 190.54703120025306 122.51013869931461 191.25344625046924 123.21655374953077 C 191.9598613006854 123.92296879974694 193.02225233549802 124.13429151556446 193.94522807794178 123.75198244530287 C 194.8682038203855 123.3696733750413 195.47 122.46902174468018 195.47 121.47 C 195.47 120.10585666791793 194.36414333208205 119 193 119 Z M 2.19 97.36 C 3.377237421022201 97.47583427925497 4.433605137889001 96.60733772791016 4.549524238909743 95.42010858568676 C 4.665443339930484 94.23287944346336 3.7970222628904446 93.17644967964146 2.609801405525909 93.06044575744664 C 1.4225805481613736 92.94444183525181 0.36608874277677783 93.81278743355435 0.25 95 C 0.19424159700637605 95.57022821623849 0.3673213896172156 96.13924765575658 0.7311539176805524 96.58184805072023 C 1.0949864457438891 97.02444844568387 1.619759845898605 97.30436381798368 2.1899999999999995 97.36 Z M 3.34 91.2 C 4.043322666334438 91.26833565957735 4.668968613970261 90.75380436419009 4.7377120726268425 90.05052143944246 C 4.806455531283424 89.34723851469482 4.292287093336135 88.7212943293677 3.5890441466244996 88.65214309474395 C 2.885801199912863 88.5829918601202 2.259558987341717 89.09679726776011 2.19 89.8 C 2.1259820645659135 90.50262910580793 2.6383161753112616 91.1263401971501 3.34 91.2 Z M 89.12 8.06 C 91.21960188787928 7.0242084966374065 92.08232920150375 4.482714919048352 91.04716256998051 2.382804880259739 C 90.01199593845726 0.2828948414711263 87.47075921466711 -0.5805887636195433 85.37054121094003 0.45395290438859437 C 83.27032320721297 1.488494572396732 82.40608338712738 4.0294742173326235 83.44 6.129999999999999 C 83.93689841111302 7.139508804592485 84.81467909847872 7.910114453423454 85.88003155251198 8.27210921333264 C 86.94538400654523 8.634103973241828 88.11093521753321 8.557799480013433 89.12 8.06 Z M 79.32000000000001 8.93 C 80.52891625063141 8.320149836094815 81.0177184279693 6.847998382460929 80.41365536617494 5.636180103661879 C 79.80959230438057 4.424361824862828 78.33979476342945 3.928526509843171 77.12510215921824 4.52678866035119 C 75.91040955500705 5.12505081085921 75.40755243734219 6.592460838840621 76 7.809999999999999 C 76.29020111250767 8.400231449911885 76.80382267052421 8.850345797101834 77.42703158363435 9.06058494851248 C 78.05024049674446 9.270824099923127 78.73156346004824 9.223823567154486 79.32 8.93 Z M 104.18 195.73000000000002 C 103.32933413527176 195.93297552594734 102.68500609907414 196.62886856753977 102.54799260513717 197.49261550966264 C 102.4109791112002 198.35636245178551 102.80832142399125 199.21749242457295 103.5544141114768 199.67375679884296 C 104.30050679896236 200.130021173113 105.24809947652903 200.09137067519816 105.95455529768515 199.57585961779776 C 106.66101111884126 199.06034856039736 106.9869025122911 198.1697192642015 106.78 197.32000000000002 C 106.49869360245116 196.16471453491062 105.33657247113472 195.454032766144 104.18 195.73 Z M 109.73 195.87 C 109.39886766881075 195.94570972959795 109.11233011625058 196.15190836236818 108.93535778110838 196.44184176249473 C 108.7583854459662 196.7317751626213 108.70597133826567 197.08088031368246 108.79 197.41 C 108.91025955170797 197.91433990206443 109.32288655762625 198.2963175168595 109.83499147671662 198.37737088467847 C 110.34709639580701 198.45842425249742 110.85751518279285 198.22254164163024 111.12764385842206 197.7799904070888 C 111.39777253405127 197.33743917254733 111.37424838190937 196.7756433390957 111.0680681686764 196.3572239638082 C 110.76188795544344 195.9388045885207 110.23353621817351 195.74641855487621 109.73 195.87 Z" stroke-linecap="round" />
</g>
</g>
</g>
</g>
</g>
<g transform="matrix(1.9211538461538462 0 0 1.9211538461538462 627.2339326923075 688.9352404539301)" id="text-logo"  >
<g style=""  paint-order="stroke"   >
		<g transform="matrix(1 0 0 1 5.684342e-14 0)" id="text-logo-path-0"  >
<path style="stroke: none; stroke-width: 0; stroke-dasharray: none; stroke-linecap: butt; stroke-dashoffset: 0; stroke-linejoin: miter; stroke-miterlimit: 4; fill: rgb(23,135,34); fill-rule: nonzero; opacity: 1;"  paint-order="stroke"  transform=" translate(-219.48, 20.880000000000003)" d="M 27.66 -15.72 L 31.56 -15.72 L 31.56 -10.74 C 29.4 -9 27.06 -8.16 23.88 -8.16 C 16.2 -8.16 11.04 -13.38 11.04 -21 C 11.04 -28.62 16.2 -33.84 23.88 -33.84 C 26.58 -33.84 28.68 -33.24 30.54 -32.04 C 31.2 -31.56 31.98 -31.32 32.82 -31.32 C 35.16 -31.32 37.02 -33.24 37.02 -35.52 C 37.02 -37.02 36.24 -38.34 35.04 -39.06 C 31.8 -41.04 28.02 -42.24 23.88 -42.24 C 12.12 -42.24 2.64 -32.7 2.64 -21 C 2.64 -9.3 12.12 0.24 23.88 0.24 C 29.58 0.24 34.68 -1.98 38.4 -5.58 C 39.36 -6.42 39.96 -7.74 39.96 -9.06 L 39.96 -19.38 C 39.96 -22.08 37.92 -24.12 35.22 -24.12 L 27.66 -24.12 C 25.32 -24.12 23.46 -22.26 23.46 -19.92 C 23.46 -17.58 25.32 -15.72 27.66 -15.72 Z M 54.84 -3.78 L 54.84 -13.44 L 62.22 -13.44 L 62.52 -12.9 L 69.48 -1.68 C 70.2 -0.48 71.52 0.24 73.02 0.24 C 75.3 0.24 77.22 -1.62 77.22 -3.96 C 77.22 -4.74 76.98 -5.52 76.56 -6.18 L 71.16 -14.88 C 76.14 -17.22 79.68 -22.02 79.68 -27.78 C 79.68 -35.76 72.72 -42 64.5 -42 L 50.64 -42 C 48.3 -42 46.44 -40.14 46.44 -37.8 L 46.44 -3.78 C 46.44 -1.44 48.3 0.42 50.64 0.42 C 52.98 0.42 54.84 -1.44 54.84 -3.78 Z M 54.84 -21.84 L 54.84 -33.6 L 64.5 -33.6 C 68.88 -33.6 71.28 -31.44 71.28 -27.78 C 71.28 -24 68.88 -21.84 64.5 -21.84 Z M 90.42 0 L 109.68 0 C 112.02 0 113.88 -1.86 113.88 -4.2 C 113.88 -6.54 112.02 -8.4 109.68 -8.4 L 94.56 -8.4 L 94.56 -17.4 L 107.28 -17.4 C 109.62 -17.4 111.48 -19.26 111.48 -21.6 C 111.48 -23.94 109.62 -25.8 107.28 -25.8 L 94.56 -25.8 L 94.56 -33.6 L 109.68 -33.6 C 112.02 -33.6 113.88 -35.46 113.88 -37.8 C 113.88 -40.14 112.02 -42 109.68 -42 L 90.42 -42 L 90.42 -42 L 90.36 -42 C 88.02 -42 86.16 -40.14 86.16 -37.8 L 86.16 -4.2 C 86.16 -1.86 88.02 0 90.36 0 Z M 124.62 0 L 143.88 0 C 146.22 0 148.08 -1.86 148.08 -4.2 C 148.08 -6.54 146.22 -8.4 143.88 -8.4 L 128.76 -8.4 L 128.76 -17.4 L 141.48 -17.4 C 143.82 -17.4 145.68 -19.26 145.68 -21.6 C 145.68 -23.94 143.82 -25.8 141.48 -25.8 L 128.76 -25.8 L 128.76 -33.6 L 143.88 -33.6 C 146.22 -33.6 148.08 -35.46 148.08 -37.8 C 148.08 -40.14 146.22 -42 143.88 -42 L 124.62 -42 L 124.62 -42 L 124.56 -42 C 122.22 -42 120.36 -40.14 120.36 -37.8 L 120.36 -4.2 C 120.36 -1.86 122.22 0 124.56 0 Z M 162.96 -3.54 L 162.96 -24.48 C 162.96 -30.24 166.56 -33.84 172.32 -33.84 C 178.02 -33.84 181.62 -30.24 181.62 -24.48 L 181.62 -3.54 C 181.62 -1.2 183.48 0.66 185.82 0.66 C 188.16 0.66 190.02 -1.2 190.02 -3.54 L 190.02 -24.48 C 190.02 -34.32 182.1 -42.24 172.32 -42.24 C 162.48 -42.24 154.56 -34.32 154.56 -24.48 L 154.56 -3.54 C 154.56 -1.2 156.42 0.66 158.76 0.66 C 161.1 0.66 162.96 -1.2 162.96 -3.54 Z M 218.1 -18.6 L 229.8 -18.6 C 233.76 -18.6 235.8 -16.74 235.8 -13.56 C 235.8 -10.26 233.76 -8.4 229.8 -8.4 L 218.1 -8.4 Z M 209.7 -4.2 C 209.7 -1.86 211.56 0 213.9 0 L 229.8 0 C 237.6 0 244.2 -5.94 244.2 -13.56 C 244.2 -17.58 242.28 -21.12 239.34 -23.58 C 240.84 -25.5 241.68 -27.9 241.68 -30.36 C 241.68 -36.6 236.1 -42 228.78 -42 L 213.9 -42 C 211.56 -42 209.7 -40.14 209.7 -37.8 Z M 218.1 -27 L 218.1 -33.6 L 228.78 -33.6 C 232.02 -33.6 233.28 -32.52 233.28 -30.36 C 233.28 -28.08 232.02 -27 228.78 -27 Z M 259.08 -3.54 L 259.08 -11.4 L 277.74 -11.4 L 277.74 -3.54 C 277.74 -1.2 279.6 0.66 281.94 0.66 C 284.28 0.66 286.14 -1.2 286.14 -3.54 L 286.14 -24.48 C 286.14 -34.32 278.22 -42.24 268.44 -42.24 C 258.6 -42.24 250.68 -34.32 250.68 -24.48 L 250.68 -3.54 C 250.68 -1.2 252.54 0.66 254.88 0.66 C 257.22 0.66 259.08 -1.2 259.08 -3.54 Z M 259.08 -19.8 L 259.08 -24.48 C 259.08 -30.24 262.68 -33.84 268.44 -33.84 C 274.14 -33.84 277.74 -30.24 277.74 -24.48 L 277.74 -19.8 Z M 293.52 -7.08 C 297.36 -2.34 302.64 0.24 308.4 0.24 C 317.1 0.24 324.06 -5.04 324.06 -12.66 C 324.06 -21 317.34 -23.1 309.54 -24.78 C 304.14 -26.1 302.04 -26.7 302.04 -29.64 C 302.04 -32.52 303.42 -33.84 308.16 -33.84 C 311.22 -33.84 313.08 -33 314.52 -31.5 C 315.3 -30.72 316.32 -30.24 317.52 -30.24 C 319.8 -30.24 321.66 -32.1 321.66 -34.44 C 321.66 -35.58 321.18 -36.66 320.4 -37.44 C 317.58 -40.14 313.62 -42.24 308.16 -42.24 C 299.46 -42.24 293.64 -36.72 293.64 -29.64 C 293.64 -21.24 300.12 -18.42 307.62 -16.62 C 313.56 -15.3 315.66 -14.94 315.66 -12.66 C 315.66 -9.54 313.14 -8.16 308.4 -8.16 C 304.92 -8.16 302.28 -9.36 300.12 -12.18 C 299.34 -13.2 298.14 -13.86 296.82 -13.86 C 294.48 -13.86 292.62 -12 292.62 -9.66 C 292.62 -8.7 292.98 -7.8 293.52 -7.08 Z M 338.94 -3.78 L 338.94 -17.4 L 350.16 -17.4 C 354.12 -17.4 356.34 -15.18 356.34 -11.22 L 356.34 -3.78 C 356.34 -1.44 358.2 0.42 360.54 0.42 C 362.88 0.42 364.74 -1.44 364.74 -3.78 L 364.74 -11.22 C 364.74 -16.08 362.34 -20.4 358.68 -23.04 C 360.6 -25.5 361.74 -28.62 361.74 -31.98 L 361.74 -38.22 C 361.74 -40.56 359.88 -42.42 357.54 -42.42 C 355.2 -42.42 353.34 -40.56 353.34 -38.22 L 353.34 -31.98 C 353.34 -28.02 351.12 -25.8 347.16 -25.8 L 338.94 -25.8 L 338.94 -38.22 C 338.94 -40.56 337.08 -42.42 334.74 -42.42 C 332.4 -42.42 330.54 -40.56 330.54 -38.22 L 330.54 -3.78 C 330.54 -1.44 332.4 0.42 334.74 0.42 C 337.08 0.42 338.94 -1.44 338.94 -3.78 Z M 375.48 0 L 394.74 0 C 397.08 0 398.94 -1.86 398.94 -4.2 C 398.94 -6.54 397.08 -8.4 394.74 -8.4 L 379.62 -8.4 L 379.62 -17.4 L 392.34 -17.4 C 394.68 -17.4 396.54 -19.26 396.54 -21.6 C 396.54 -23.94 394.68 -25.8 392.34 -25.8 L 379.62 -25.8 L 379.62 -33.6 L 394.74 -33.6 C 397.08 -33.6 398.94 -35.46 398.94 -37.8 C 398.94 -40.14 397.08 -42 394.74 -42 L 375.48 -42 L 375.48 -42 L 375.42 -42 C 373.08 -42 371.22 -40.14 371.22 -37.8 L 371.22 -4.2 C 371.22 -1.86 373.08 0 375.42 0 Z M 425.1 -3.78 L 425.1 -33.6 L 432.12 -33.6 C 434.46 -33.6 436.32 -35.46 436.32 -37.8 C 436.32 -40.14 434.46 -42 432.12 -42 L 409.62 -42 C 407.28 -42 405.42 -40.14 405.42 -37.8 C 405.42 -35.46 407.28 -33.6 409.62 -33.6 L 416.7 -33.6 L 416.7 -3.78 C 416.7 -1.44 418.56 0.42 420.9 0.42 C 423.24 0.42 425.1 -1.44 425.1 -3.78 Z" stroke-linecap="round" />
</g>
</g>
</g>
<g transform="matrix(1.9211538461538462 0 0 1.9211538461538462 642.9196561057261 420.2470836567758)" id="tagline-3152705a-3764-47fc-9e9b-b1693627290e-logo"  >
<g style=""  paint-order="stroke"   >
		<g transform="matrix(1 0 0 1 0 0)" id="tagline-3152705a-3764-47fc-9e9b-b1693627290e-logo-path-0"  >
<path style="stroke: none; stroke-width: 0; stroke-dasharray: none; stroke-linecap: butt; stroke-dashoffset: 0; stroke-linejoin: miter; stroke-miterlimit: 4; fill: rgb(23,135,34); fill-rule: nonzero; opacity: 1;"  paint-order="stroke"  transform=" translate(-27.355844349297236, 21.89)" d="M 34.18 -45.12 C 27.32 -44.41 28.21 -33.73 35.24 -34.44 C 50.73 -36.13 59.81 -68.17 34.8 -68.17 C 19.49 -68.17 4.89 -51.09 1.51 -37.74 C -3.38 -18.33 3.47 -2.49 20.11 -2.49 C 23.58 -2.49 26.52 -3.38 29.1 -4.72 C 28.57 -3.29 28.04 -1.96 27.5 -0.62 C 23.94 0.53 20.56 1.25 17.71 1.69 C 9.08 2.85 -1.42 5.25 -2.4 13.17 C -3.2 20.38 3.65 24.39 11.21 24.39 C 22.96 24.39 30.88 15.31 36.05 5.07 C 44.5 0.89 52.6 -5.79 56.87 -15.75 C 58.65 -20.02 52.15 -22.78 50.28 -18.6 C 48.33 -13.97 45.03 -10.32 41.21 -7.48 C 43.16 -13.53 44.32 -18.87 44.95 -21.63 C 46.55 -28.3 36.13 -30.7 34.62 -23.94 L 33.46 -19.13 C 30.53 -14.33 25.99 -13.17 20.11 -13.17 C 17.71 -13.17 10.5 -18.69 14.51 -34.53 C 16.82 -43.97 25.72 -59.27 34.8 -59.27 C 45.75 -59.27 38.8 -45.57 34.18 -45.12 Z M 6.5 14.24 C 6.5 14.15 8.99 11.84 18.78 10.59 C 19.49 10.5 20.29 10.32 21.09 10.15 C 18.33 13.44 15.04 15.49 11.21 15.49 C 5.61 15.49 6.5 14.33 6.5 14.24 Z" stroke-linecap="round" />
</g>
</g>
</g>
<g transform="matrix(1.9211538461538462 0 0 1.9211538461538462 629.3664134615385 782.8139600693146)" id="tagline-347795ba-7209-4e75-b143-2a3769343477-logo"  >
<g style=""  paint-order="stroke"   >
		<g transform="matrix(1 0 0 1 0 0)" id="tagline-347795ba-7209-4e75-b143-2a3769343477-logo-path-0"  >
<path style="stroke: none; stroke-width: 0; stroke-dasharray: none; stroke-linecap: butt; stroke-dashoffset: 0; stroke-linejoin: miter; stroke-miterlimit: 4; fill: rgb(23,135,34); fill-rule: nonzero; opacity: 1;"  paint-order="stroke"  transform=" translate(-245.805, 10.440000000000001)" d="M 3.72 -1.08 L 3.72 -7.95 C 3.72 -8.7 4.32 -9.3 5.07 -9.3 L 11.64 -9.3 C 12.3 -9.3 12.84 -9.84 12.84 -10.5 C 12.84 -11.16 12.3 -11.7 11.64 -11.7 L 5.07 -11.7 C 4.32 -11.7 3.72 -12.3 3.72 -13.05 L 3.72 -17.25 C 3.72 -18 4.32 -18.6 5.07 -18.6 L 13.74 -18.6 C 14.4 -18.6 14.94 -19.14 14.94 -19.8 C 14.94 -20.46 14.4 -21 13.74 -21 L 2.97 -21 C 2.07 -21 1.32 -20.25 1.32 -19.35 L 1.32 -1.08 C 1.32 -0.42 1.86 0.12 2.52 0.12 C 3.18 0.12 3.72 -0.42 3.72 -1.08 Z M 30.09 -1.08 L 30.09 -5.07 C 30.09 -5.82 30.69 -6.42 31.44 -6.42 L 33.45 -6.42 C 34.2 -6.42 35.16 -5.94 35.61 -5.34 L 39.63 -0.12 C 39.84 0.15 40.17 0.33 40.56 0.33 C 41.22 0.33 41.76 -0.18 41.76 -0.87 C 41.76 -1.14 41.67 -1.38 41.52 -1.59 L 38.31 -5.76 C 37.86 -6.36 38.04 -7.08 38.73 -7.41 C 40.92 -8.67 42.42 -11.04 42.42 -13.71 C 42.42 -17.67 39.09 -21 35.13 -21 L 29.34 -21 C 28.44 -21 27.69 -20.25 27.69 -19.35 L 27.69 -1.08 C 27.69 -0.42 28.23 0.12 28.89 0.12 C 29.55 0.12 30.09 -0.42 30.09 -1.08 Z M 30.09 -10.17 L 30.09 -10.17 L 30.09 -17.25 C 30.09 -18 30.69 -18.6 31.44 -18.6 L 35.13 -18.6 C 37.92 -18.6 40.02 -16.5 40.02 -13.71 C 40.02 -10.92 37.92 -8.82 35.13 -8.82 L 31.44 -8.82 C 30.69 -8.82 30.09 -9.42 30.09 -10.17 Z M 67.59 -2.4 L 58.92 -2.4 C 58.17 -2.4 57.57 -3 57.57 -3.75 L 57.57 -7.95 C 57.57 -8.7 58.17 -9.3 58.92 -9.3 L 65.49 -9.3 C 66.15 -9.3 66.69 -9.84 66.69 -10.5 C 66.69 -11.16 66.15 -11.7 65.49 -11.7 L 58.92 -11.7 C 58.17 -11.7 57.57 -12.3 57.57 -13.05 L 57.57 -17.25 C 57.57 -18 58.17 -18.6 58.92 -18.6 L 67.59 -18.6 C 68.25 -18.6 68.79 -19.14 68.79 -19.8 C 68.79 -20.46 68.25 -21 67.59 -21 L 56.82 -21 C 55.92 -21 55.17 -20.25 55.17 -19.35 L 55.17 -1.65 C 55.17 -0.75 55.92 0 56.82 0 L 67.59 0 C 68.25 0 68.79 -0.54 68.79 -1.2 C 68.79 -1.86 68.25 -2.4 67.59 -2.4 Z M 81.81 -3.48 C 83.64 -1.29 86.19 0.15 89.1 0.15 C 93.03 0.15 95.91 -2.58 95.91 -5.31 C 95.91 -9.09 92.4 -10.92 89.4 -12.03 C 86.55 -13.11 84.72 -13.98 84.72 -15.69 C 84.72 -17.25 86.1 -18.75 89.01 -18.75 C 91.23 -18.75 92.55 -17.88 93.51 -16.56 C 93.72 -16.26 94.08 -16.05 94.47 -16.05 C 95.13 -16.05 95.67 -16.59 95.67 -17.25 C 95.67 -17.52 95.58 -17.76 95.43 -17.97 C 94.14 -19.71 92.1 -21.15 89.01 -21.15 C 84.87 -21.15 82.32 -18.36 82.32 -15.69 C 82.32 -12.39 85.56 -10.92 88.56 -9.81 C 91.32 -8.73 93.51 -7.59 93.51 -5.31 C 93.51 -3.78 91.89 -2.25 89.1 -2.25 C 86.88 -2.25 85.11 -3.24 83.64 -5.01 C 83.43 -5.28 83.1 -5.43 82.74 -5.43 C 82.08 -5.43 81.54 -4.89 81.54 -4.23 C 81.54 -3.96 81.63 -3.69 81.81 -3.48 Z M 111.06 -1.08 L 111.06 -7.95 C 111.06 -8.7 111.66 -9.3 112.41 -9.3 L 121.41 -9.3 C 122.16 -9.3 122.76 -8.7 122.76 -7.95 L 122.76 -1.08 C 122.76 -0.42 123.3 0.12 123.96 0.12 C 124.62 0.12 125.16 -0.42 125.16 -1.08 L 125.16 -19.92 C 125.16 -20.58 124.62 -21.12 123.96 -21.12 C 123.3 -21.12 122.76 -20.58 122.76 -19.92 L 122.76 -13.05 C 122.76 -12.3 122.16 -11.7 121.41 -11.7 L 112.41 -11.7 C 111.66 -11.7 111.06 -12.3 111.06 -13.05 L 111.06 -19.92 C 111.06 -20.58 110.52 -21.12 109.86 -21.12 C 109.2 -21.12 108.66 -20.58 108.66 -19.92 L 108.66 -1.08 C 108.66 -0.42 109.2 0.12 109.86 0.12 C 110.52 0.12 111.06 -0.42 111.06 -1.08 Z M 140.31 -1.08 L 140.31 -15.72 C 140.31 -16.47 140.64 -16.56 141.06 -15.96 L 151.32 -0.69 C 152.22 0.72 154.41 0.06 154.41 -1.65 L 154.41 -19.92 C 154.41 -20.58 153.87 -21.12 153.21 -21.12 C 152.55 -21.12 152.01 -20.58 152.01 -19.92 L 152.01 -5.28 C 152.01 -4.53 151.68 -4.44 151.26 -5.04 L 141 -20.31 C 140.1 -21.72 137.91 -21.06 137.91 -19.35 L 137.91 -1.08 C 137.91 -0.42 138.45 0.12 139.11 0.12 C 139.77 0.12 140.31 -0.42 140.31 -1.08 Z M 139.02 -18.99 L 139.05 -18.96 Z M 153.27 -2.04 L 153.3 -2.01 Z M 179.58 -2.4 L 170.91 -2.4 C 170.16 -2.4 169.56 -3 169.56 -3.75 L 169.56 -7.95 C 169.56 -8.7 170.16 -9.3 170.91 -9.3 L 177.48 -9.3 C 178.14 -9.3 178.68 -9.84 178.68 -10.5 C 178.68 -11.16 178.14 -11.7 177.48 -11.7 L 170.91 -11.7 C 170.16 -11.7 169.56 -12.3 169.56 -13.05 L 169.56 -17.25 C 169.56 -18 170.16 -18.6 170.91 -18.6 L 179.58 -18.6 C 180.24 -18.6 180.78 -19.14 180.78 -19.8 C 180.78 -20.46 180.24 -21 179.58 -21 L 168.81 -21 C 167.91 -21 167.16 -20.25 167.16 -19.35 L 167.16 -1.65 C 167.16 -0.75 167.91 0 168.81 0 L 179.58 0 C 180.24 0 180.78 -0.54 180.78 -1.2 C 180.78 -1.86 180.24 -2.4 179.58 -2.4 Z M 193.8 -3.48 C 195.63 -1.29 198.18 0.15 201.09 0.15 C 205.02 0.15 207.9 -2.58 207.9 -5.31 C 207.9 -9.09 204.39 -10.92 201.39 -12.03 C 198.54 -13.11 196.71 -13.98 196.71 -15.69 C 196.71 -17.25 198.09 -18.75 201 -18.75 C 203.22 -18.75 204.54 -17.88 205.5 -16.56 C 205.71 -16.26 206.07 -16.05 206.46 -16.05 C 207.12 -16.05 207.66 -16.59 207.66 -17.25 C 207.66 -17.52 207.57 -17.76 207.42 -17.97 C 206.13 -19.71 204.09 -21.15 201 -21.15 C 196.86 -21.15 194.31 -18.36 194.31 -15.69 C 194.31 -12.39 197.55 -10.92 200.55 -9.81 C 203.31 -8.73 205.5 -7.59 205.5 -5.31 C 205.5 -3.78 203.88 -2.25 201.09 -2.25 C 198.87 -2.25 197.1 -3.24 195.63 -5.01 C 195.42 -5.28 195.09 -5.43 194.73 -5.43 C 194.07 -5.43 193.53 -4.89 193.53 -4.23 C 193.53 -3.96 193.62 -3.69 193.8 -3.48 Z M 220.92 -3.48 C 222.75 -1.29 225.3 0.15 228.21 0.15 C 232.14 0.15 235.02 -2.58 235.02 -5.31 C 235.02 -9.09 231.51 -10.92 228.51 -12.03 C 225.66 -13.11 223.83 -13.98 223.83 -15.69 C 223.83 -17.25 225.21 -18.75 228.12 -18.75 C 230.34 -18.75 231.66 -17.88 232.62 -16.56 C 232.83 -16.26 233.19 -16.05 233.58 -16.05 C 234.24 -16.05 234.78 -16.59 234.78 -17.25 C 234.78 -17.52 234.69 -17.76 234.54 -17.97 C 233.25 -19.71 231.21 -21.15 228.12 -21.15 C 223.98 -21.15 221.43 -18.36 221.43 -15.69 C 221.43 -12.39 224.67 -10.92 227.67 -9.81 C 230.43 -8.73 232.62 -7.59 232.62 -5.31 C 232.62 -3.78 231 -2.25 228.21 -2.25 C 225.99 -2.25 224.22 -3.24 222.75 -5.01 C 222.54 -5.28 222.21 -5.43 221.85 -5.43 C 221.19 -5.43 220.65 -4.89 220.65 -4.23 C 220.65 -3.96 220.74 -3.69 220.92 -3.48 Z M 270.45 -2.4 L 267.63 -2.4 C 266.88 -2.4 266.28 -3 266.28 -3.75 L 266.28 -17.25 C 266.28 -18 266.88 -18.6 267.63 -18.6 L 270.45 -18.6 C 275.04 -18.6 278.55 -15.09 278.55 -10.53 C 278.55 -5.91 275.04 -2.4 270.45 -2.4 Z M 263.88 -19.35 L 263.88 -1.65 C 263.88 -0.75 264.63 0 265.53 0 L 270.45 0 C 276.21 0 280.95 -4.74 280.95 -10.53 C 280.95 -16.26 276.21 -21 270.45 -21 L 265.53 -21 C 264.63 -21 263.88 -20.25 263.88 -19.35 Z M 306.12 -2.4 L 297.45 -2.4 C 296.7 -2.4 296.1 -3 296.1 -3.75 L 296.1 -7.95 C 296.1 -8.7 296.7 -9.3 297.45 -9.3 L 304.02 -9.3 C 304.68 -9.3 305.22 -9.84 305.22 -10.5 C 305.22 -11.16 304.68 -11.7 304.02 -11.7 L 297.45 -11.7 C 296.7 -11.7 296.1 -12.3 296.1 -13.05 L 296.1 -17.25 C 296.1 -18 296.7 -18.6 297.45 -18.6 L 306.12 -18.6 C 306.78 -18.6 307.32 -19.14 307.32 -19.8 C 307.32 -20.46 306.78 -21 306.12 -21 L 295.35 -21 C 294.45 -21 293.7 -20.25 293.7 -19.35 L 293.7 -1.65 C 293.7 -0.75 294.45 0 295.35 0 L 306.12 0 C 306.78 0 307.32 -0.54 307.32 -1.2 C 307.32 -1.86 306.78 -2.4 306.12 -2.4 Z M 332.49 -2.4 L 323.82 -2.4 C 323.07 -2.4 322.47 -3 322.47 -3.75 L 322.47 -19.92 C 322.47 -20.58 321.93 -21.12 321.27 -21.12 C 320.61 -21.12 320.07 -20.58 320.07 -19.92 L 320.07 -1.65 C 320.07 -0.75 320.82 0 321.72 0 L 332.49 0 C 333.15 0 333.69 -0.54 333.69 -1.2 C 333.69 -1.86 333.15 -2.4 332.49 -2.4 Z M 348.84 -1.08 L 348.84 -19.92 C 348.84 -20.58 348.3 -21.12 347.64 -21.12 C 346.98 -21.12 346.44 -20.58 346.44 -19.92 L 346.44 -1.08 C 346.44 -0.42 346.98 0.12 347.64 0.12 C 348.3 0.12 348.84 -0.42 348.84 -1.08 Z M 361.68 -19.53 L 369.21 -1.05 C 369.84 0.54 372 0.54 372.63 -1.05 L 380.16 -19.53 C 380.22 -19.68 380.25 -19.83 380.25 -20.01 C 380.25 -20.67 379.74 -21.21 379.05 -21.21 C 378.57 -21.21 378.15 -20.91 377.97 -20.49 L 371.43 -4.47 C 371.16 -3.78 370.68 -3.78 370.41 -4.47 L 363.87 -20.49 C 363.69 -20.91 363.27 -21.21 362.79 -21.21 C 362.1 -21.21 361.59 -20.67 361.59 -20.01 C 361.59 -19.83 361.62 -19.68 361.68 -19.53 Z M 405.42 -2.4 L 396.75 -2.4 C 396 -2.4 395.4 -3 395.4 -3.75 L 395.4 -7.95 C 395.4 -8.7 396 -9.3 396.75 -9.3 L 403.32 -9.3 C 403.98 -9.3 404.52 -9.84 404.52 -10.5 C 404.52 -11.16 403.98 -11.7 403.32 -11.7 L 396.75 -11.7 C 396 -11.7 395.4 -12.3 395.4 -13.05 L 395.4 -17.25 C 395.4 -18 396 -18.6 396.75 -18.6 L 405.42 -18.6 C 406.08 -18.6 406.62 -19.14 406.62 -19.8 C 406.62 -20.46 406.08 -21 405.42 -21 L 394.65 -21 C 393.75 -21 393 -20.25 393 -19.35 L 393 -1.65 C 393 -0.75 393.75 0 394.65 0 L 405.42 0 C 406.08 0 406.62 -0.54 406.62 -1.2 C 406.62 -1.86 406.08 -2.4 405.42 -2.4 Z M 421.77 -1.08 L 421.77 -5.07 C 421.77 -5.82 422.37 -6.42 423.12 -6.42 L 425.13 -6.42 C 425.88 -6.42 426.84 -5.94 427.29 -5.34 L 431.31 -0.12 C 431.52 0.15 431.85 0.33 432.24 0.33 C 432.9 0.33 433.44 -0.18 433.44 -0.87 C 433.44 -1.14 433.35 -1.38 433.2 -1.59 L 429.99 -5.76 C 429.54 -6.36 429.72 -7.08 430.41 -7.41 C 432.6 -8.67 434.1 -11.04 434.1 -13.71 C 434.1 -17.67 430.77 -21 426.81 -21 L 421.02 -21 C 420.12 -21 419.37 -20.25 419.37 -19.35 L 419.37 -1.08 C 419.37 -0.42 419.91 0.12 420.57 0.12 C 421.23 0.12 421.77 -0.42 421.77 -1.08 Z M 421.77 -10.17 L 421.77 -10.17 L 421.77 -17.25 C 421.77 -18 422.37 -18.6 423.12 -18.6 L 426.81 -18.6 C 429.6 -18.6 431.7 -16.5 431.7 -13.71 C 431.7 -10.92 429.6 -8.82 426.81 -8.82 L 423.12 -8.82 C 422.37 -8.82 421.77 -9.42 421.77 -10.17 Z M 459.27 -2.4 L 450.6 -2.4 C 449.85 -2.4 449.25 -3 449.25 -3.75 L 449.25 -7.95 C 449.25 -8.7 449.85 -9.3 450.6 -9.3 L 457.17 -9.3 C 457.83 -9.3 458.37 -9.84 458.37 -10.5 C 458.37 -11.16 457.83 -11.7 457.17 -11.7 L 450.6 -11.7 C 449.85 -11.7 449.25 -12.3 449.25 -13.05 L 449.25 -17.25 C 449.25 -18 449.85 -18.6 450.6 -18.6 L 459.27 -18.6 C 459.93 -18.6 460.47 -19.14 460.47 -19.8 C 460.47 -20.46 459.93 -21 459.27 -21 L 448.5 -21 C 447.6 -21 446.85 -20.25 446.85 -19.35 L 446.85 -1.65 C 446.85 -0.75 447.6 0 448.5 0 L 459.27 0 C 459.93 0 460.47 -0.54 460.47 -1.2 C 460.47 -1.86 459.93 -2.4 459.27 -2.4 Z M 479.79 -2.4 L 476.97 -2.4 C 476.22 -2.4 475.62 -3 475.62 -3.75 L 475.62 -17.25 C 475.62 -18 476.22 -18.6 476.97 -18.6 L 479.79 -18.6 C 484.38 -18.6 487.89 -15.09 487.89 -10.53 C 487.89 -5.91 484.38 -2.4 479.79 -2.4 Z M 473.22 -19.35 L 473.22 -1.65 C 473.22 -0.75 473.97 0 474.87 0 L 479.79 0 C 485.55 0 490.29 -4.74 490.29 -10.53 C 490.29 -16.26 485.55 -21 479.79 -21 L 474.87 -21 C 473.97 -21 473.22 -20.25 473.22 -19.35 Z" stroke-linecap="round" />
</g>
</g>
</g>
</svg>